{"title":"Eden 2012 DVDRip Xvid AC3","uid":8951579,"size":1480140880,"categoryP":"video","categoryS":"movies","magnet":"?xt=urn:btih:63fc8e46edd153afff40a7f9dd33553a2cc49cfc&amp;dn=Eden+2012+DVDRip+Xvid+AC3&amp;tr=udp%3A%2F%2Ftracker.openbittorrent.com%3A80&amp;tr=udp%3A%2F%2Fopen.demonii.com%3A1337&amp;tr=udp%3A%2F%2Ftracker.coppersurfer.tk%3A6969&amp;tr=udp%3A%2F%2Fexodus.desync.com%3A6969","seeders":0,"leechers":1,"uploader":"Adeuss","files":-1,"time":1379897641,"description":"General\nComplete name                            : C:UsersSERGIODownloadsEden 2012 DVDRip Xvid AC3Eden 2012 DVDRip Xvid AC3.avi\nFormat                                   : AVI\nFormat/Info                              : Audio Video Interleave\nFile size                                : 1.38 GiB\nDuration                                 : 1h 34mn\nOverall bit rate                         : 2 099 Kbps\n\nVideo\nID                                       : 0\nFormat                                   : MPEG-4 Visual\nFormat profile                           : Advanced Simple@L5\nFormat settings, BVOP                    : 2\nFormat settings, QPel                    : No\nFormat settings, GMC                     : No warppoints\nFormat settings, Matrix                  : Default (H.263)\nCodec ID                                 : XVID\nCodec ID/Hint                            : XviD\nDuration                                 : 1h 34mn\nBit rate                                 : 1 643 Kbps\nWidth                                    : 720 pixels\nHeight                                   : 304 pixels\nDisplay aspect ratio                     : 2.35:1\nFrame rate                               : 25.000 fps\nColor space                              : YUV\nChroma subsampling                       : 4:2:0\nBit depth                                : 8 bits\nScan type                                : Progressive\nCompression mode                         : Lossy\nBits/(Pixel*Frame)                       : 0.300\nStream size                              : 1.08 GiB (78%)\nWriting library                          : XviD 1.2.1 (UTC 2008-12-04)\n\nAudio\nID                                       : 1\nFormat                                   : AC-3\nFormat/Info                              : Audio Coding 3\nMode extension                           : CM (complete main)\nFormat settings, Endianness              : Big\nCodec ID                                 : 2000\nDuration                                 : 1h 34mn\nBit rate mode                            : Constant\nBit rate                                 : 448 Kbps\nChannel count                            : 6 channels\nChannel positions                        : Front: L C R, Side: L R, LFE\nSampling rate                            : 48.0 KHz\nBit depth                                : 16 bits\nCompression mode                         : Lossy\nStream size                              : 301 MiB (21%)\nAlignment                                : Aligned on interleaves\nInterleave, duration                     : 64 ms (1.60 video frames)\nInterleave, preload duration             : 192 ms\nTitle                                    : VTS_01_1 T80 3_2ch 448Kbps DELAY 0ms_new\n\n[IMG]http://imageshack.us/a/img844/6449/bzm0.jpg[/IMG]\n\n\n[IMG]http://imageshack.us/a/img543/444/nkbu.jpg[/IMG]\n\n[IMG]http://imageshack.us/a/img844/6449/bzm0.jpg[/IMG]\n\n[IMG]http://imageshack.us/a/img39/5408/d7bz.jpg[/IMG]\n\n\n\n","torrent":{"xt":"urn:btih:63fc8e46edd153afff40a7f9dd33553a2cc49cfc","amp;dn":"Eden+2012+DVDRip+Xvid+AC3","amp;tr":["udp%3A%2F%2Ftracker.openbittorrent.com%3A80","udp%3A%2F%2Fopen.demonii.com%3A1337","udp%3A%2F%2Ftracker.coppersurfer.tk%3A6969","udp%3A%2F%2Fexodus.desync.com%3A6969"],"infoHash":"63fc8e46edd153afff40a7f9dd33553a2cc49cfc","infoHashBuffer":{"type":"Buffer","data":[99,252,142,70,237,209,83,175,255,64,167,249,221,51,85,58,44,196,156,252]},"announce":[],"urlList":[]}}